<svg xmlns="http://www.w3.org/2000/svg" xmlns:xlink="http://www.w3.org/1999/xlink" width="1920" zoomAndPan="magnify" viewBox="0 0 1440 809.999993" height="1080" preserveAspectRatio="xMidYMid meet" version="1.0"><defs><clipPath id="c79ff58d7f"><path d="M 0 0 L 746 0 L 746 399 L 0 399 Z M 0 0 " clip-rule="nonzero"/></clipPath><clipPath id="fe2656e66b"><path d="M -723.820312 187.085938 L 341.007812 -816.523438 L 1070.953125 -42.054688 L 6.125 961.558594 Z M -723.820312 187.085938 " clip-rule="nonzero"/></clipPath><clipPath id="acdde85cb9"><path d="M -723.820312 187.085938 L 341.007812 -816.523438 L 1070.953125 -42.054688 L 6.125 961.558594 Z M -723.820312 187.085938 " clip-rule="nonzero"/></clipPath><clipPath id="b74c312302"><path d="M 677 395 L 1440 395 L 1440 810 L 677 810 Z M 677 395 " clip-rule="nonzero"/></clipPath><clipPath id="8b7cdecaba"><path d="M 348.425781 640.683594 L 1730.480469 160.023438 L 2080.070312 1165.214844 L 698.019531 1645.875 Z M 348.425781 640.683594 " clip-rule="nonzero"/></clipPath><clipPath id="9e9554d27c"><path d="M 348.425781 640.683594 L 1730.480469 160.023438 L 2080.070312 1165.214844 L 698.019531 1645.875 Z M 348.425781 640.683594 " clip-rule="nonzero"/></clipPath></defs><rect x="-144" width="1728" fill="#ffffff" y="-80.999999" height="971.999992" fill-opacity="1"/><rect x="-144" width="1728" fill="#02533f" y="-80.999999" height="971.999992" fill-opacity="1"/><g clip-path="url(#c79ff58d7f)"><g clip-path="url(#fe2656e66b)"><g clip-path="url(#acdde85cb9)"><path fill="#b1d13d" d="M -98.191406 20.199219 C 183.847656 -114.886719 28.164062 -435.464844 345.25 -559.902344 C 515.523438 -626.726562 727.351562 -403.347656 745.464844 -108.050781 C 745.859375 264.722656 383.585938 -70.457031 196.222656 269.945312 C 8.863281 610.335938 -722.246094 185.742188 -98.179688 20.203125 Z M -98.191406 20.199219 " fill-opacity="1" fill-rule="nonzero"/></g></g></g><g clip-path="url(#b74c312302)"><g clip-path="url(#8b7cdecaba)"><g clip-path="url(#9e9554d27c)"><path fill="#b1d13d" d="M 987.621094 744.113281 C 1300.238281 736.121094 1289.199219 379.910156 1629.449219 395.957031 C 1812.164062 404.578125 1914.175781 695.03125 1809.996094 971.933594 C 1657.976562 1312.296875 1464.363281 858.316406 1154.222656 1092.390625 C 844.089844 1326.457031 350.414062 640.097656 987.628906 744.121094 Z M 987.621094 744.113281 " fill-opacity="1" fill-rule="nonzero"/></g></g></g></svg>